<?xml version="1.0" standalone="no"?>
<!DOCTYPE svg PUBLIC "-//W3C//DTD SVG 20010904//EN"
 "http://www.w3.org/TR/2001/REC-SVG-20010904/DTD/svg10.dtd">
<svg version="1.0" xmlns="http://www.w3.org/2000/svg"
 width="512.000000pt" height="512.000000pt" viewBox="0 0 512.000000 512.000000"
 preserveAspectRatio="xMidYMid meet">
<metadata>
Created by potrace 1.14, written by Peter Selinger 2001-2017
</metadata>
<g transform="translate(0.000000,512.000000) scale(0.100000,-0.100000)"
fill="#000000" stroke="none">
<path d="M2711 4221 c-12 -8 -14 -110 -15 -643 -2 -667 -1 -673 44 -760 11
-21 17 -38 13 -38 -4 0 2 -7 13 -15 10 -8 15 -15 11 -15 -4 0 4 -17 18 -37 14
-21 25 -44 25 -51 0 -34 27 2 55 74 17 43 39 94 48 111 10 18 17 36 16 39 0 4
3 10 8 13 5 3 25 29 43 56 38 56 153 174 216 223 57 43 219 126 279 142 28 7
54 16 60 19 5 3 16 6 25 7 8 1 49 7 90 14 70 11 196 9 265 -4 86 -18 131 -30
143 -39 6 -5 12 -7 12 -4 0 8 123 -45 131 -56 3 -5 8 -8 10 -8 12 2 49 -13 49
-19 0 -4 13 -13 29 -20 16 -6 45 -26 65 -45 20 -18 36 -30 36 -26 0 3 30 -25
67 -64 84 -89 175 -225 199 -300 2 -5 15 -44 30 -85 14 -41 28 -88 30 -105 2
-16 6 -50 9 -75 12 -81 6 -223 -11 -282 -3 -9 -7 -25 -9 -35 -12 -55 -40 -138
-47 -141 -4 -2 -8 -10 -8 -18 0 -14 -39 -105 -49 -114 -3 -3 -15 -21 -25 -40
-37 -66 -69 -103 -211 -237 -8 -7 -16 -13 -20 -13 -3 0 -14 -8 -25 -18 -24
-22 -186 -103 -211 -105 -10 -1 -19 -6 -19 -11 0 -5 -2 -7 -5 -4 -3 3 -32 -3
-64 -13 -32 -10 -81 -21 -107 -25 -61 -8 -265 -12 -279 -5 -5 3 -24 6 -42 8
-84 7 -281 93 -381 166 -68 50 -223 207 -204 207 4 0 2 4 -4 8 -21 14 -93 131
-174 287 -18 33 -39 68 -48 78 -8 9 -11 17 -6 17 5 0 4 4 -2 8 -6 4 -26 36
-45 72 -19 36 -37 67 -40 70 -4 3 -21 32 -39 65 -18 33 -41 72 -51 87 -11 14
-19 29 -19 31 0 3 -33 61 -74 129 -64 107 -93 159 -140 243 -62 111 -166 244
-267 340 -77 74 -169 145 -187 145 -6 0 -12 4 -14 9 -8 22 -219 108 -333 137
-16 4 -37 9 -45 11 -111 27 -388 24 -487 -6 -18 -5 -33 -7 -33 -4 0 3 -7 0
-15 -7 -8 -7 -15 -10 -15 -6 0 3 -24 -3 -52 -15 -29 -11 -57 -21 -63 -23 -30
-7 -180 -88 -247 -134 -81 -55 -191 -157 -250 -232 -64 -80 -153 -242 -140
-254 3 -3 1 -6 -5 -6 -9 0 -17 -19 -28 -60 0 -3 -9 -28 -18 -57 -10 -28 -19
-61 -20 -72 -1 -12 -5 -21 -10 -21 -5 0 -6 -9 -2 -19 3 -11 2 -22 -3 -25 -5
-3 -7 -17 -4 -31 2 -14 0 -25 -4 -25 -13 0 -16 -255 -4 -330 6 -36 11 -75 12
-87 0 -13 4 -23 10 -23 5 0 7 -4 4 -9 -7 -11 35 -134 76 -221 37 -81 124 -215
166 -257 18 -17 32 -34 32 -38 0 -4 16 -21 37 -38 20 -18 50 -45 66 -61 34
-32 171 -123 234 -154 59 -30 194 -83 215 -85 10 -1 18 -4 18 -8 0 -4 6 -6 13
-6 6 1 46 -5 87 -13 128 -24 340 -17 470 16 14 3 33 6 43 6 9 -1 17 4 17 9 0
6 5 7 10 4 6 -3 10 -3 10 2 0 4 10 9 23 10 12 0 40 9 62 19 22 10 42 18 45 19
25 7 168 86 195 107 6 5 39 31 75 59 63 48 200 186 200 202 0 4 5 7 10 7 6 0
10 -85 10 -235 l0 -236 102 3 103 3 -1 265 0 265 -59 105 c-33 58 -67 119 -75
135 -8 17 -17 32 -20 35 -6 6 -31 50 -55 98 -19 36 -35 42 -35 12 0 -11 -4
-28 -10 -38 -5 -9 -21 -46 -36 -82 -14 -36 -35 -77 -45 -92 -11 -14 -19 -30
-19 -36 0 -5 -8 -18 -17 -30 -10 -11 -29 -36 -43 -54 -43 -58 -200 -206 -200
-190 0 4 -7 -2 -15 -12 -8 -11 -15 -16 -15 -10 0 5 -3 5 -8 -1 -14 -20 -102
-67 -177 -95 -73 -28 -213 -62 -224 -55 -5 3 -12 2 -15 -3 -6 -10 -192 -8
-256 2 -24 4 -63 14 -85 22 -22 7 -46 14 -53 14 -17 0 -191 80 -212 97 -8 7
-34 25 -57 40 -51 34 -163 133 -163 144 0 5 -10 19 -22 32 -39 39 -68 77 -61
77 3 0 -1 8 -10 18 -29 32 -100 196 -113 261 -1 7 -8 36 -15 65 -8 30 -13 106
-13 186 1 111 6 152 27 232 29 112 43 146 101 253 26 46 127 173 168 210 75
67 108 93 108 87 0 -4 7 2 15 12 8 11 15 16 15 11 0 -4 8 -1 18 7 24 22 162
88 182 88 9 0 20 3 24 7 3 4 12 8 19 9 7 1 39 10 72 19 38 11 106 19 187 21
121 3 155 -2 303 -40 10 -3 23 -8 99 -40 40 -17 152 -82 172 -101 7 -5 24 -19
40 -30 62 -44 162 -157 203 -229 12 -22 34 -56 48 -73 13 -18 20 -33 16 -33
-4 0 -3 -4 3 -8 6 -4 21 -27 35 -52 13 -25 27 -47 30 -50 10 -9 79 -131 79
-141 0 -5 5 -9 10 -9 6 0 10 -4 10 -10 0 -8 78 -147 118 -210 9 -14 15 -28 14
-32 -1 -5 3 -8 9 -8 5 0 8 -4 5 -9 -4 -5 -2 -11 2 -13 5 -1 35 -50 67 -108 32
-58 67 -117 78 -132 10 -16 15 -28 10 -28 -4 0 -3 -4 3 -8 5 -4 21 -25 34 -47
13 -22 29 -43 34 -47 6 -4 7 -8 2 -8 -5 0 -2 -7 5 -16 14 -17 15 -19 63 -103
16 -28 32 -51 36 -51 4 0 12 -11 18 -24 33 -72 268 -296 310 -296 6 0 12 -4
14 -9 8 -22 279 -137 292 -124 3 4 6 2 6 -4 0 -5 6 -10 13 -10 6 0 46 -8 87
-18 90 -21 300 -28 385 -13 33 5 65 11 70 12 6 1 16 5 23 9 6 5 17 5 22 2 6
-3 10 -1 10 6 0 7 2 10 5 7 7 -7 161 46 180 62 8 7 15 10 15 6 0 -4 17 2 38
13 20 10 42 20 47 21 6 1 17 7 25 14 8 7 34 24 58 36 23 13 42 27 42 32 0 4 7
8 15 8 8 0 15 5 15 10 0 6 8 14 17 17 9 4 24 14 33 22 9 9 34 32 56 52 35 32
63 63 138 153 13 16 30 41 38 55 7 14 17 29 23 33 5 4 6 8 1 8 -5 0 -2 8 6 18
18 21 89 187 91 213 1 10 5 19 9 19 4 0 5 6 2 14 -3 8 0 17 5 21 6 3 9 10 7
14 -3 4 2 33 10 65 31 120 33 331 4 473 -16 76 -16 76 -22 93 -3 8 -14 38 -23
65 -19 55 -72 161 -91 185 -7 8 -12 17 -11 20 2 7 -81 127 -112 164 -147 171
-314 282 -526 350 -44 15 -91 28 -105 30 -14 3 -25 5 -25 6 0 3 -49 10 -70 11
-10 0 -24 4 -30 8 -14 11 -370 3 -370 -9 0 -2 -15 -5 -56 -13 -54 -11 -251
-89 -269 -107 -3 -3 -27 -16 -54 -30 -26 -14 -50 -31 -53 -37 -3 -7 -8 -11
-12 -8 -4 2 -23 -9 -42 -25 -19 -16 -40 -29 -46 -30 -7 0 -13 -4 -13 -9 0 -8
-71 -61 -83 -61 -3 0 -8 213 -9 473 -2 384 -6 477 -17 490 -10 13 -31 17 -95
17 -44 0 -87 -4 -95 -9z"/>
</g>
</svg>
